/* XPM */
static char * close_active_xpm[] = {
"30 30 9 1",
" 	c None",
".	c #808080",
"+	c #2A0000",
"@	c #FFFFFF",
"#	c #2ADFFF",
"$	c #2A7FAA",
"%	c #2A5FAA",
"&	c #2A3FAA",
"*	c #000000",
"                              ",
"                              ",
" ............................ ",
" .++++++++++++++++++++++++++@ ",
" .+########################+@ ",
" .+#$$$$$$$%$$$$$$$$%%%%%%&+@ ",
" .+#$$$$$$$$$$%$$$$%%%%%$$&+@ ",
" .+#$$$$$$$$$%%%$$%%%%%%$$&+@ ",
" .+#$$$$$$$$$%%%%%%%%$%%%$&+@ ",
" .+#$$$$$$&&$%%%%%&&$$$%%$&+@ ",
" .+#$$$$$&**&%%%%&**&$$%%$&+@ ",
" .+#$$$$&****&$%&****&$%%$&+@ ",
" .+#$$$$#*****&&*****#%%%$&+@ ",
" .+#$$$$$#**********#%%%$$&+@ ",
" .+#$$$$$$#********#%$$$$$&+@ ",
" .+#$$$$$$$#******#%$$$$$$&+@ ",
" .+#$$$$$$$&******&%$$$$$$&+@ ",
" .+#$$$$$$&********&$$$$$$&+@ ",
" .+#$$$$$&**********&$$$$%&+@ ",
" .+#$$$$&*****##*****&%%%%&+@ ",
" .+#$$$$#****#$$#****#%%%%&+@ ",
" .+#$$$$$#**#$$$%#**#%%%%%&+@ ",
" .+#$$$$$$##$$$%%%##&&%%%%&+@ ",
" .+#$$$$$$$$$$$$$%%%%&%%%%&+@ ",
" .+#$$$$$$%$$%%$$%%%%&%%%%&+@ ",
" .+#$$$$%%%$$$$%%%%%%%%%%%&+@ ",
" .+#$$%%%$$$$$%%%%%%%%%%%%&+@ ",
" .+&&&&&&&&&&&&&&&&&&&&&&&&+@ ",
" .++++++++++++++++++++++++++@ ",
" @@@@@@@@@@@@@@@@@@@@@@@@@@@@ "};
