/* XPM */
static char * hide_inactive_xpm[] = {
"30 30 6 1",
" 	c None",
".	c #808080",
"+	c #2A0000",
"@	c #FFFFFF",
"#	c #C0C0C0",
"$	c #A0A0A4",
"                              ",
"                              ",
" ............................ ",
" .++++++++++++++++++++++++++@ ",
" .+@@@@@@@@@@@@@@@@@@@@@@@@+@ ",
" .+@######################.+@ ",
" .+@######################.+@ ",
" .+@######################.+@ ",
" .+@######################.+@ ",
" .+@######################.+@ ",
" .+@######################.+@ ",
" .+@######################.+@ ",
" .+@#######........#######.+@ ",
" .+@#######.$$$$$$@#######.+@ ",
" .+@#######.$$$$$$@#######.+@ ",
" .+@#######.$$$$$$@#######.+@ ",
" .+@#######.$$$$$$@#######.+@ ",
" .+@#######.$$$$$$@#######.+@ ",
" .+@#######.$$$$$$@#######.+@ ",
" .+@#######@@@@@@@@#######.+@ ",
" .+@######################.+@ ",
" .+@######################.+@ ",
" .+@######################.+@ ",
" .+@######################.+@ ",
" .+@######################.+@ ",
" .+@######################.+@ ",
" .+@######################.+@ ",
" .+@.......................+@ ",
" .++++++++++++++++++++++++++@ ",
" @@@@@@@@@@@@@@@@@@@@@@@@@@@@ "};
