/* XPM */
static char * stick_toggled_pressed_xpm[] = {
"20 34 8 1",
" 	c #000000",
".	c #2ADFFF",
"+	c #2A7FAA",
"@	c #2A5FAA",
"#	c #2A3FAA",
"$	c #2A1F55",
"%	c #2A0000",
"&	c #FFFFFF",
"                    ",
"....................",
"++++++++++++++++++++",
"++++++++++++++++++++",
"++++++++++++++++++++",
"+++++++++++++++@++++",
"++++++++++++++++++++",
"++++++++++++++++++++",
"+++++@++++++++++++++",
"++++++++++++++++++++",
"++++++++++++++++++++",
"++++#####++#####++++",
"@+++#....++#....++++",
"++++#.+$.++#.+$.++++",
"+@++#$$$.++#$$$.++++",
"+@++.....++.....++++",
"+@@+++++++++++++++++",
"@+++#####++#####+++@",
"@+++#....++#....+++@",
"@@++#.+$.++#.+$.++++",
"@@++#$$$.++#$$$.++@+",
"@@++.....++.....++++",
"@@@+@+++++++++++@@++",
"@@@+@+++++++++++@@+@",
"@@+++++++++++@+++@+@",
"@+++@@@+@++++@+++@+@",
"@+++++@@++++++@@+@@@",
"+++++++++++++++@@@@@",
"++@++++++++++++@@@##",
"+++++++++++++@++@@@#",
"+++++++++++@@@++@@@#",
"####################",
"%%%%%%%%%%%%%%%%%%%%",
"&&&&&&&&&&&&&&&&&&&&"};
