/* XPM */
static char * title_4_inactive_xpm[] = {
"5 34 6 1",
" 	c #000000",
".	c #FFFFFF",
"+	c #2A0000",
"@	c #808080",
"#	c #2A1F00",
"$	c #C0C0C0",
"     ",
"..+..",
"@#+.$",
"@#+.$",
"@#+.$",
"@#+.$",
"@#+.$",
"@#+.$",
"@#+.$",
"@#+.$",
"@#+.$",
"@#+.$",
"@#+.$",
"@#+.$",
"@#+.$",
"@#+.$",
"@#+.$",
"@#+.$",
"@#+.$",
"@#+.$",
"@#+.$",
"@#+.$",
"@#+.$",
"@#+.$",
"@#+.$",
"@#+.$",
"@#+.$",
"@#+.$",
"@#+.$",
"@#+.$",
"@#+.$",
"##+.$",
"+++.$",
"....$"};
