/* XPM */
static char * title_4_active_xpm[] = {
"5 34 7 1",
" 	c #000000",
".	c #2ADFFF",
"+	c #2A0000",
"@	c #FFFFFF",
"#	c #2A7FAA",
"$	c #2A3FAA",
"%	c #C0C0C0",
"     ",
"..+@@",
"#$+@%",
"#$+@%",
"#$+@%",
"#$+@%",
"#$+@%",
"#$+@%",
"#$+@%",
"#$+@%",
"#$+@%",
"#$+@%",
"#$+@%",
"#$+@%",
"#$+@%",
"#$+@%",
"#$+@%",
"#$+@%",
"#$+@%",
"#$+@%",
"#$+@%",
"#$+@%",
"#$+@%",
"#$+@%",
"#$+@%",
"#$+@%",
"#$+@%",
"#$+@%",
"#$+@%",
"#$+@%",
"#$+@%",
"$$+@%",
"+++@%",
"@@@@%"};
