/* XPM */
static char * bottom_active_xpm[] = {
"20 8 4 1",
" 	c #808080",
".	c #FFFFFF",
"+	c #C0C0C0",
"@	c #000000",
"                    ",
"....................",
"++++++++++++++++++++",
"++++++++++++++++++++",
"++++++++++++++++++++",
"++++++++++++++++++++",
"                    ",
"@@@@@@@@@@@@@@@@@@@@"};
