/* XPM */
static char * bottom_left_active_xpm[] = {
"23 8 5 1",
" 	c #000000",
".	c #FFFFFF",
"+	c #C0C0C0",
"@	c #808080",
"#	c #2A0000",
" .+@.@@@@@@@@@@@@@@@@@@",
" ......................",
" .@@@@@@@@@@@@@@@@@@@#.",
" .@@@@@@@@@@@@@@@@@@@#.",
" .@@@@@@@@@@@@@@@@@@@#.",
" .@@@@@@@@@@@@@@@@@@@#.",
" #####################@",
"                       "};
