/* XPM */
static char * close_prelight_xpm[] = {
"30 30 8 1",
" 	c None",
".	c #808080",
"+	c #2A0000",
"@	c #FFFFFF",
"#	c #2ADFFF",
"$	c #2A9FFF",
"%	c #2A7FAA",
"&	c #000000",
"                              ",
"                              ",
" ............................ ",
" .++++++++++++++++++++++++++@ ",
" .+@@@@@@@@@@@@@@@@@@@@@@@@+@ ",
" .+@#######$########$$$$$$%+@ ",
" .+@##########$####$$$$$##%+@ ",
" .+@#########$$$##$$$$$$##%+@ ",
" .+@#########$$$$$$$$#$$$#%+@ ",
" .+@######%%#$$$$$%%###$$#%+@ ",
" .+@#####%&&%$$$$%&&%##$$#%+@ ",
" .+@####%&&&&%#$%&&&&%#$$#%+@ ",
" .+@####@&&&&&%%&&&&&@$$$#%+@ ",
" .+@#####@&&&&&&&&&&@$$$##%+@ ",
" .+@######@&&&&&&&&@$#####%+@ ",
" .+@#######@&&&&&&@$######%+@ ",
" .+@#######%&&&&&&%$######%+@ ",
" .+@######%&&&&&&&&%######%+@ ",
" .+@#####%&&&&&&&&&&%####$%+@ ",
" .+@####%&&&&&@@&&&&&%$$$$%+@ ",
" .+@####@&&&&@##@&&&&@$$$$%+@ ",
" .+@#####@&&@###$@&&@$$$$$%+@ ",
" .+@######@@###$$$@@%%$$$$%+@ ",
" .+@#############$$$$%$$$$%+@ ",
" .+@######$##$$##$$$$%$$$$%+@ ",
" .+@####$$$####$$$$$$$$$$$%+@ ",
" .+@##$$$#####$$$$$$$$$$$$%+@ ",
" .+%%%%%%%%%%%%%%%%%%%%%%%%+@ ",
" .++++++++++++++++++++++++++@ ",
" @@@@@@@@@@@@@@@@@@@@@@@@@@@@ "};
