/* XPM */
static char * close_pressed_xpm[] = {
"30 30 10 1",
" 	c None",
".	c #808080",
"+	c #2A0000",
"@	c #FFFFFF",
"#	c #2A3FAA",
"$	c #2A5FAA",
"%	c #2ADFFF",
"&	c #2A1F55",
"*	c #000000",
"=	c #2A7FAA",
"                              ",
"                              ",
" ............................ ",
" .++++++++++++++++++++++++++@ ",
" .+########################+@ ",
" .+#$$$$$$$#$$$$$$$$######%+@ ",
" .+#$$$$$$$$$$#$$$$#####$$%+@ ",
" .+#$$$$$$$$$###$$######$$%+@ ",
" .+#$$$$$$$$$########$###$%+@ ",
" .+#$$$$$$&&$#####&&$$$##$%+@ ",
" .+#$$$$$&**&####&**&$$##$%+@ ",
" .+#$$$$&****&$#&****&$##$%+@ ",
" .+#$$$$=*****&&*****=###$%+@ ",
" .+#$$$$$=**********=###$$%+@ ",
" .+#$$$$$$=********=#$$$$$%+@ ",
" .+#$$$$$$$=******=#$$$$$$%+@ ",
" .+#$$$$$$$&******&#$$$$$$%+@ ",
" .+#$$$$$$&********&$$$$$$%+@ ",
" .+#$$$$$&**********&$$$$#%+@ ",
" .+#$$$$&*****==*****&####%+@ ",
" .+#$$$$=****=$$=****=####%+@ ",
" .+#$$$$$=**=$$$#=**=#####%+@ ",
" .+#$$$$$$==$$$###==&&####%+@ ",
" .+#$$$$$$$$$$$$$####&####%+@ ",
" .+#$$$$$$#$$##$$####&####%+@ ",
" .+#$$$$###$$$$###########%+@ ",
" .+#$$###$$$$$############%+@ ",
" .+%%%%%%%%%%%%%%%%%%%%%%%%+@ ",
" .++++++++++++++++++++++++++@ ",
" @@@@@@@@@@@@@@@@@@@@@@@@@@@@ "};
