/* XPM */
static char * close_inactive_xpm[] = {
"30 30 7 1",
" 	c None",
".	c #808080",
"+	c #2A0000",
"@	c #FFFFFF",
"#	c #555F55",
"$	c #2A1F00",
"%	c #000000",
"                              ",
"                              ",
" ............................ ",
" .++++++++++++++++++++++++++@ ",
" .+@@@@@@@@@@@@@@@@@@@@@@@@+@ ",
" .+@.......#........######$+@ ",
" .+@..........#....#####..$+@ ",
" .+@.........###..######..$+@ ",
" .+@.........########.###.$+@ ",
" .+@......$$.#####$$...##.$+@ ",
" .+@.....$%%$####$%%$..##.$+@ ",
" .+@....$%%%%$.#$%%%%$.##.$+@ ",
" .+@....@%%%%%$$%%%%%@###.$+@ ",
" .+@.....@%%%%%%%%%%@###..$+@ ",
" .+@......@%%%%%%%%@#.....$+@ ",
" .+@.......@%%%%%%@#......$+@ ",
" .+@.......$%%%%%%$#......$+@ ",
" .+@......$%%%%%%%%$......$+@ ",
" .+@.....$%%%%%%%%%%$....#$+@ ",
" .+@....$%%%%%@@%%%%%$####$+@ ",
" .+@....@%%%%@..@%%%%@####$+@ ",
" .+@.....@%%@...#@%%@#####$+@ ",
" .+@......@@...###@@$$####$+@ ",
" .+@.............####$####$+@ ",
" .+@......#..##..####$####$+@ ",
" .+@....###....###########$+@ ",
" .+@..###.....############$+@ ",
" .+$$$$$$$$$$$$$$$$$$$$$$$$+@ ",
" .++++++++++++++++++++++++++@ ",
" @@@@@@@@@@@@@@@@@@@@@@@@@@@@ "};
