/* XPM */
static char * hide_pressed_xpm[] = {
"30 30 7 1",
" 	c None",
".	c #808080",
"+	c #2A0000",
"@	c #FFFFFF",
"#	c #7F9FAA",
"$	c #000000",
"%	c #C0C0C0",
"                              ",
"                              ",
" ............................ ",
" .++++++++++++++++++++++++++@ ",
" .+........................+@ ",
" .+.######################@+@ ",
" .+.######################@+@ ",
" .+.######################@+@ ",
" .+.######################@+@ ",
" .+.######################@+@ ",
" .+.######################@+@ ",
" .+.######################@+@ ",
" .+.#######++++++++#######@+@ ",
" .+.#######+$$$$$$%#######@+@ ",
" .+.#######+$$$$$$%#######@+@ ",
" .+.#######+$$$$$$%#######@+@ ",
" .+.#######+$$$$$$%#######@+@ ",
" .+.#######+$$$$$$%#######@+@ ",
" .+.#######+$$$$$$%#######@+@ ",
" .+.#######%%%%%%%%#######@+@ ",
" .+.######################@+@ ",
" .+.######################@+@ ",
" .+.######################@+@ ",
" .+.######################@+@ ",
" .+.######################@+@ ",
" .+.######################@+@ ",
" .+.######################@+@ ",
" .+@@@@@@@@@@@@@@@@@@@@@@@@+@ ",
" .++++++++++++++++++++++++++@ ",
" @@@@@@@@@@@@@@@@@@@@@@@@@@@@ "};
