/* XPM */
static char * menu_inactive_xpm[] = {
"20 34 6 1",
" 	c #000000",
".	c #FFFFFF",
"+	c #808080",
"@	c #555F55",
"#	c #2A1F00",
"$	c #2A0000",
"                    ",
"....................",
"++++++++++++++++++++",
"++++++++++++++++++++",
"++++++++++++++++++++",
"+@++@+++++++++++++++",
"@@@@@@++++@+++++++++",
"++++++@++++++@++++++",
"++++++++++++@@++++++",
"++++++++++++++@@++++",
"@++++++++@@@@@@@@@@+",
"@++++++@@@@@@@@@@@++",
"++++++@@@@@@@@@##@++",
"++++++@@@@@##@##@+++",
"+@+++++@@#@####@@@++",
"+@++++@@@######@@@++",
"++++++@@@#####@@@@@+",
"++++++++@@@@@@@@@@@+",
"+++++++++++@@@@@@@@@",
"+@+@+++++++++@+++@@@",
"@@@+++++++++++++++@@",
"@@++++++++++@+++@@@#",
"@++++++++++++++++@@@",
"@++++++++++++++++@@@",
"@@+@+++@+++++++@++@@",
"#@@++@@+++++++++++@@",
"#@@@@@++@++++++++++@",
"##@@+++++++++++++++@",
"##@+++++++++++++++++",
"#@@+++++++++++++++++",
"@+@@@@++++++++++++++",
"####################",
"$$$$$$$$$$$$$$$$$$$$",
"...................."};
