/* XPM */
static char * right_active_xpm[] = {
"5 20 4 1",
" 	c #808080",
".	c #FFFFFF",
"+	c #C0C0C0",
"@	c #000000",
" .+ @",
" .+ @",
" .+ @",
" .+ @",
" .+ @",
" .+ @",
" .+ @",
" .+ @",
" .+ @",
" .+ @",
" .+ @",
" .+ @",
" .+ @",
" .+ @",
" .+ @",
" .+ @",
" .+ @",
" .+ @",
" .+ @",
" .+ @"};
