/* XPM */
static char * stick_toggled_prelight_xpm[] = {
"20 34 8 1",
" 	c #000000",
".	c #2ADFFF",
"+	c #2A7FAA",
"@	c #2A5FAA",
"#	c #2A3FAA",
"$	c #FFFFFF",
"%	c #7FFFFF",
"&	c #2A0000",
"                    ",
"....................",
"++++++++++++++++++++",
"++++++++++++++++++++",
"++++++++++++++++++++",
"+++++++++++++++@++++",
"++++++++++++++++++++",
"++++++++++++++++++++",
"+++++@++++++++++++++",
"++++++++++++++++++++",
"++++++++++++++++++++",
"++++#####++#####++++",
"@+++#$$$.++#$$$.++++",
"++++#$%+.++#$%+.++++",
"+@++#+++.++#+++.++++",
"+@++.....++.....++++",
"+@@+++++++++++++++++",
"@+++#####++#####+++@",
"@+++#$$$.++#$$$.+++@",
"@@++#$%+.++#$%+.++++",
"@@++#+++.++#+++.++@+",
"@@++.....++.....++++",
"@@@+@+++++++++++@@++",
"@@@+@+++++++++++@@+@",
"@@+++++++++++@+++@+@",
"@+++@@@+@++++@+++@+@",
"@+++++@@++++++@@+@@@",
"+++++++++++++++@@@@@",
"++@++++++++++++@@@##",
"+++++++++++++@++@@@#",
"+++++++++++@@@++@@@#",
"####################",
"&&&&&&&&&&&&&&&&&&&&",
"$$$$$$$$$$$$$$$$$$$$"};
