/* XPM */
static char * title_3_active_xpm[] = {
"300 34 6 1",
" 	c #000000",
".	c #FFFFFF",
"+	c #7F5F55",
"@	c #7F3F55",
"#	c #7F7F55",
"$	c #2A0000",
"                                                                                                                                                                                                                                                                                                            ",
"............................................................................................................................................................................................................................................................................................................",
"++@+++++++++@+++++##################################+#+++@++#########+@@++++++++##########+++++@@@@@@++#++++#####+#########################++++++++@@@@+@+###+#############################################################++@@++###+#############+++#######################################################",
"##++++++++++++++++++####################++##+######++++++@@+#########+@@+++++++#############++++@@@@+++++++++##############################++++++@@+@@@@@+##+++#################+#########################################++@@+++###############+##+########################################################",
"####+++++++++++######+#############+###+++#############+++@@+#######++@++++++###+############+++++@@++++++++++#######################+###++++++@@@@@@@@@@++##################+########################################+###++@@+++#################++###############################+########################",
"######+++++++##############+########+++++++##########+##+++++#######+@+++++++##################+++@@@++++++++###########################+++++++@@@@@@@@@@@++######++#######++++########################################+++@@@++++################++#################################++##+###################",
"########+++++#################+####+++++##+#####+########++++#+#####+++++@++++##################+++@@+@@++##############################+#++@@@@@@@@@@@@@@+++#############++++++######################################+++++++++++##+#############+##################################++++++####+#############",
"#########++##################+++##++++++###+######+#####++++++######+++++@@++####################++++@@@++##########################++##+++@@@@@@@@@@@@@@@++++###+#+#####+++++++#####+###############################+++@+++#++++###############++##################################+++++++######+##########",
"#############################++++++++#+++#########++###+++++++######+++++++++++##+###############++++@@@@+###########################+#++++++@@@@@@@@@@@@@@+++#+++#######++++#+++###+################################++@@+++#+++++####+++++#####++#################################+@@++++######++######+###",
"#############################+++++++###++#########++###+++++++######++++++++++++##################+++@@@+++#####################+##++++++++++@@@@@@@@@@@++@+++++++#######+####+++##+++##############################++@@@++###++++####+++++++++++++###########################+##+++++++++########++########",
"+############################++++++++##++########+++####+##+++######++++++++++++###################++@@@@++#########++##########+++++++++++++++++++@@@@@@@@@++@++#######++##++++++#+#+###############################+@++######+###+++++++++++++++++#############################+#+++##+####++++++++++#####",
"+##############################++++++##++########+++###++##++#######++++++++@++####################+++@@@@@+########++++##########+++++++++@+++++++++@@@@@@@@@@++##++++++###+++++###################################++@@+######+###+++++++++++++++++##++########################+###++##++#+++++++++++######",
"################################+++++++++###++#+++++###++##++#######++++#+++++++####################+++@+@+++#######+++#######++##+++++++++++++++++++++@@@@@@@@+++++++######+++++####################################++@+++##+++++##++#++++++++++@@++++++###########################++##+++++++++++@@+######",
"###############################+++++++++####++++++++##+++++++++#++##++@++###++++####################+++++++++#######++#########+++++++++++++++++++++@+++@@@@@@@@++++++######+++++####################################++@@+++++++++###+#++++++@++++@@++++####+########################++++++++++@@+@@+#######",
"#+#############################++++++########+++++###++++@+@+++++++++++++###++++######################++++++###################++++++++++++++++@+++++++++@@@@@@@@@@@++#####+++++################################+####+++@@@@@++++####+#+++++++@++@+@@@+++++############################+++#++@+@@@@+++######",
"#+############################++++++#########++++++#++@@@@@@@+++++++++@@++++++++##########################+######################+++++++++++++++++++++++++@@@@@@@@@++#######++++#####################################++@@@@@@++++####++++#++++@@@@+++@@++++#####+########################++++@@@@@@+++######",
"#############+##################++++#########+++++++++@@@@@@@@@+@@++++@@@++++++++################################################+++#+++++++#++++@@+++++++@@@@@@@+++######+####################################+++###++@@@@++++++#####++++++++@@++++@@+@++####+++#########################+++@@@@@+++++#####",
"############++###################+++########+++++++++@@@@@@@@@@@@@@@++@@@@++++++++####+###+################+#####################+++##++@+#######++@@++++++@++++++++############################################++###++@@@+++++++#####++@++++@@@@@@@++++++###++++###########################+++++++++++#####",
"###########+++###+###############+++#####+++++++@@@@@@@@@@@@@@@@@@@@@@+@@@@+++++++++++##++##+#########################################+++########++@+####+++++++++##+###########################################+++##++@@++++##+++#+#++@@@@++@@@@@+++@@+++++++++++#############################+++++++++++++",
"#+#+########+++++++##############+++++++++++#++++@@@@@+++++@@@@@@@@@@@@@@@@++++++++++++++++#####################################+#####++++########+++######+++++################################################++++++@@@+++++###++++++@@@@@@@@@+@++++@@++++++++++++#############################+###+++++++",
"+++#############+++#############+++@@++++++++++++@@@@@@++++@@@@@@@@@@@@@@@@@+@+++++++++#+#+############################################+++#########+########################################################+###++@++@+@@+++++###++@@@@@@@@@@@@@@+++++@@++@@+++++++++++###############################++@@@@",
"++###############+##############++++@+++++++++++@@@@@@+@+++@@@@@@@++@@@@@@@@+@@++++++++#####+###########################################++###############################################################+######++@@@@@@@@+++++#+++++@@@@@@@@+@++++++++++@+@@@+++++@++++########################+###+++@@@@+",
"+##############################+++++@@++++++++@@@@@++@++++@@@@@@@@+++@@@@@@@@@@++++++++##################################################+####################################################+###########++####++@@@+@@@@++++++++++++@@++++++++####+###++@@@+++++++@@+++############################+++@@@+",
"+################################++++@++++++++++@@@+++++++@@@@@+++++@@@@@@@++@@@@++++++###+##############################################++##########+########################################+###########++#####++@@@@@@++++++++++++++++++++++#########++@@++++++++@@@++############################+++@+@+",
"++#+###+##################+##++##++++@+++++++@+++@@+++++++@@@@++++++++++@@@+++@@++++++###++##############################################++++######+###################################################+###+######++@@@@@+++++++++++@+++++++++++++###+#++@@+++++++++@@@@+##########################+##++@+@@",
"@++##++#################+++####++++++++++++++++++@@++++++++@@@@+++++++++++++++++++++++##+++##############################################+++@++###++###################################################+###+##+###++@@@@+++++++++++++++++#++++++++++++++@@++++++++++@+@@++############################+++@@@",
"@+++++##+#############+++#####+++++++++++++++++++@+++++##+++@@@@+++++++++++++++++++++++#+++##+#########################################+#++@@++++++##+##################################################++#++++++#++@@@+++++++++++++++++++++@++++++++++@@@@+++++++++@+@@++#############################++@@@",
"@@++#################++++#####+++++#++++++++++++#++++####+++++++@+++##++####++++++++++++++++##############################################++++++++++#####################################################++++++++#++++@@+++++++++++++++++++@@@@@+++++++@@@@++++++++++++@+++############################+++@@",
"@@+##################++++###+++++####++++++++++###########++++++++++#########+++++#+#####+################################################++++++++++##################################+##################+++@@+++#++++@@+++#########+++++++@@@@@@+@+@+@@@@@+++#++++++@++++++############################+++@",
"@++##################++++####+#+++##++++++++#++################+@++###########+++++####+#+###############################################+++#++++++##################################++++#################+++@@++++++@@@++++########++++@+@@@@@@@@@@@@@@@@@@++#++++++@@+++++#############################++@",
"+#++++###############+++++#######+++++++++++#+#################++++############++++++++#####+############################################+++#++++++##################################++++#################+++@@@+++++@+@@+##########+++++@@@@@@@@@@@@@@@@@@@@+++++++++++++#####+##########################++",
"@@@@@@@@@@@@@@@@@@@@@@@@@@@@@@@@@@@@@@@@@@@@@@@@@@@@@@@@@@@@@@@@@@@@@@@@@@@@@@@@@@@@@@@@@@@@@@@@@@@@@@@@@@@@@@@@@@@@@@@@@@@@@@@@@@@@@@@@@@@@@@@@@@@@@@@@@@@@@@@@@@@@@@@@@@@@@@@@@@@@@@@@@@@@@@@@@@@@@@@@@@@@@@@@@@@@@@@@@@@@@@@@@@@@@@@@@@@@@@@@@@@@@@@@@@@@@@@@@@@@@@@@@@@@@@@@@@@@@@@@@@@@@@@@@@@@@@@@@@@@",
"$$$$$$$$$$$$$$$$$$$$$$$$$$$$$$$$$$$$$$$$$$$$$$$$$$$$$$$$$$$$$$$$$$$$$$$$$$$$$$$$$$$$$$$$$$$$$$$$$$$$$$$$$$$$$$$$$$$$$$$$$$$$$$$$$$$$$$$$$$$$$$$$$$$$$$$$$$$$$$$$$$$$$$$$$$$$$$$$$$$$$$$$$$$$$$$$$$$$$$$$$$$$$$$$$$$$$$$$$$$$$$$$$$$$$$$$$$$$$$$$$$$$$$$$$$$$$$$$$$$$$$$$$$$$$$$$$$$$$$$$$$$$$$$$$$$$$$$$$$$$",
"............................................................................................................................................................................................................................................................................................................"};
