/* XPM */
static char * title_2_active_xpm[] = {
"4 34 7 1",
" 	c #000000",
".	c #2ADFFF",
"+	c #2A7FAA",
"@	c #2A5FAA",
"#	c #2A3FAA",
"$	c #2A0000",
"%	c #FFFFFF",
"    ",
"....",
"++++",
"++++",
"++++",
"++++",
"++++",
"++++",
"@+++",
"++++",
"++++",
"++++",
"++++",
"++++",
"++++",
"++++",
"++++",
"++++",
"@@@@",
"@@@@",
"####",
"###@",
"###@",
"#@#@",
"#@##",
"@###",
"@###",
"@@##",
"@@@#",
"+@@#",
"++@@",
"####",
"$$$$",
"%%%%"};
