/* XPM */
static char * top_right_active_xpm[] = {
"5 62 4 1",
" 	c #000000",
".	c #FFFFFF",
"+	c #C0C0C0",
"@	c #808080",
"     ",
".... ",
"+++@ ",
"+++@ ",
"+++@ ",
"+++@ ",
"+++@ ",
"+++@ ",
"+++@ ",
"+++@ ",
"+++@ ",
"+++@ ",
"+++@ ",
"+++@ ",
"+++@ ",
"+++@ ",
"+++@ ",
"+++@ ",
"+++@ ",
"+++@ ",
"+++@ ",
"+++@ ",
"+++@ ",
"+++@ ",
"+++@ ",
"+++@ ",
"+++@ ",
"+++@ ",
"+++@ ",
"+++@ ",
"+++@ ",
"+++@ ",
"+++@ ",
"+++@ ",
"@@@@ ",
"@.+@ ",
"@.+@ ",
"@.+@ ",
"@.+@ ",
"@.+@ ",
"@.+@ ",
"@.+@ ",
"@.+@ ",
"@.+@ ",
"@.+@ ",
"@.+@ ",
"@.+@ ",
"@.+@ ",
"@.+@ ",
"@.+@ ",
"@.+@ ",
"@.+@ ",
"@.+@ ",
"@.+@ ",
"@.+@ ",
"@.+@ ",
"@.+@ ",
"@.+@ ",
"@.+@ ",
"@.+@ ",
"@.+@ ",
"@.+@ "};
