/* XPM */
static char * top_left_active_xpm[] = {
"5 62 7 1",
" 	c #000000",
".	c #2ADFFF",
"+	c #2A7FAA",
"@	c #2A5FAA",
"#	c #2A3FAA",
"$	c #2A0000",
"%	c #FFFFFF",
"     ",
" ....",
" .+++",
" .+++",
" .+++",
" .+++",
" .+++",
" .+++",
" .+++",
" .+++",
" .+++",
" .+++",
" .+++",
" .+++",
" .+++",
" .+++",
" .+++",
" .+++",
" .++@",
" .+@@",
" .+##",
" .+#@",
" .+#@",
" .+#@",
" .+##",
" .+##",
" .+##",
" .+##",
" .+@#",
" .+@#",
" .++@",
" .+##",
" .+$$",
" .+$%",
" .+$%",
" .+$%",
" .+$%",
" .+$%",
" .+$%",
" .+$%",
" .+$%",
" .+$%",
" .+$%",
" .+$%",
" .+$%",
" .+$%",
" .+$%",
" .+$%",
" .+$%",
" .+$%",
" .+$%",
" .+$%",
" .+$%",
" .+$%",
" .+$%",
" .+$%",
" .+$%",
" .+$%",
" .+$%",
" .+$%",
" .+$%",
"    %"};
