<?xml version="1.0" encoding="UTF-8" standalone="no"?>
<svg
   height="16"
   width="16"
   id="svg2"
   version="1.1"
   sodipodi:docname="process-working-symbolic.svg"
   inkscape:version="1.3 (1:1.3+202307231459+0e150ed6c4)"
   xmlns:inkscape="http://www.inkscape.org/namespaces/inkscape"
   xmlns:sodipodi="http://sodipodi.sourceforge.net/DTD/sodipodi-0.dtd"
   xmlns="http://www.w3.org/2000/svg"
   xmlns:svg="http://www.w3.org/2000/svg"
   xmlns:rdf="http://www.w3.org/1999/02/22-rdf-syntax-ns#"
   xmlns:cc="http://creativecommons.org/ns#"
   xmlns:dc="http://purl.org/dc/elements/1.1/">
  <sodipodi:namedview
     id="namedview1"
     pagecolor="#ffffff"
     bordercolor="#000000"
     borderopacity="0.25"
     inkscape:showpageshadow="2"
     inkscape:pageopacity="0.0"
     inkscape:pagecheckerboard="0"
     inkscape:deskcolor="#d1d1d1"
     inkscape:zoom="19.004344"
     inkscape:cx="12.444523"
     inkscape:cy="10.708078"
     inkscape:window-width="1435"
     inkscape:window-height="685"
     inkscape:window-x="107"
     inkscape:window-y="0"
     inkscape:window-maximized="0"
     inkscape:current-layer="svg2" />
  <metadata
     id="metadata34">
    <rdf:RDF>
      <cc:Work
         rdf:about="">
        <dc:format>image/svg+xml</dc:format>
        <dc:type
           rdf:resource="http://purl.org/dc/dcmitype/StillImage" />
      </cc:Work>
    </rdf:RDF>
  </metadata>
  <defs
     id="defs32" />
  <path
     id="path2893"
     style="fill:#000000;stroke-width:18.8976;stroke-linecap:round;stroke-linejoin:round;paint-order:stroke markers fill"
     d="M 8 0 A 8 8 0 0 0 0 8 A 8 8 0 0 0 8 16 A 8 8 0 0 0 16 8 A 8 8 0 0 0 8 0 z M 8 1 A 7.0000002 7.0000002 0 0 1 15 8 A 7.0000002 7.0000002 0 0 1 8 15 A 7.0000002 7.0000002 0 0 1 1 8 A 7.0000002 7.0000002 0 0 1 8 1 z " />
  <path
     id="path2895"
     style="fill:#a0a0a4;stroke-width:18.8974;stroke-linecap:round;stroke-linejoin:round;paint-order:stroke markers fill"
     d="m 8.9765625,1.0722656 c 0.2737964,0.037947 0.5451049,0.092079 0.8125,0.1621094 C 9.5465264,1.1704385 9.3007292,1.1195838 9.0527344,1.0820312 c -0.025373,-0.00339 -0.050764,-0.00665 -0.076172,-0.00977 z M 9.8496094,1.25 c 0.1588506,0.050369 0.3158516,0.1063942 0.4707026,0.1679688 -0.0872,-0.035625 -0.175106,-0.069486 -0.263671,-0.1015626 v -0.00195 c -0.01106,-0.00263 -0.02213,-0.00524 -0.0332,-0.00781 C 9.9657442,1.2870045 9.9077964,1.2681227 9.8496094,1.25 Z m -3.90625,0.064453 c -0.072071,0.026813 -0.1436954,0.054811 -0.2148438,0.083984 0.071161,-0.028518 0.1427848,-0.055866 0.2148438,-0.082031 z m 4.9843746,0.3359375 c 0.270668,0.1269657 0.532924,0.2711411 0.785157,0.4316406 l 0.0039,-0.00586 C 11.463145,1.9175285 11.199584,1.7753098 10.927734,1.6503906 Z M 11.712891,2.0820312 9.5917969,5.4609375 C 9.1150011,5.1608818 8.5633528,5.0011407 8,5 7.4366472,5.0011407 6.8849989,5.1608818 6.4082031,5.4609375 L 4.2871094,2.0800781 C 3.3947033,2.6402742 2.6402742,3.3947033 2.0800781,4.2871094 L 5.4609375,6.4082031 C 5.1608818,6.8849989 5.0011407,7.4366472 5,8 5.0011407,8.5633528 5.1608818,9.1150011 5.4609375,9.5917969 L 2.0800781,11.712891 c 0.5601961,0.892406 1.3146252,1.646835 2.2070313,2.207031 l 2.1210937,-3.38086 C 6.8849988,10.839118 7.4366472,10.998859 8,11 c 0.5633528,-0.0011 1.1150012,-0.160882 1.5917969,-0.460938 l 2.1191411,3.375 c 0.892971,-0.557498 1.648701,-1.309223 2.210937,-2.199218 L 10.539062,9.5917969 C 10.839118,9.1150012 10.998859,8.5633528 11,8 10.998859,7.4366472 10.839118,6.8849988 10.539062,6.4082031 L 13.917969,4.2871094 C 13.358101,3.3956267 12.604374,2.6418992 11.712891,2.0820312 Z m 2.205078,2.2050782 c 0.160499,0.2522326 0.304674,0.5144884 0.43164,0.7851562 C 14.22469,4.8004162 14.082471,4.5368548 13.923828,4.2832031 Z m -2.207031,9.6269526 c -0.159625,0.09899 -0.323169,0.19151 -0.490235,0.277344 0.16889,-0.0825 0.334389,-0.171761 0.496094,-0.267578 z M 5.0488281,1.6601562 c -0.033997,0.017301 -0.067853,0.03488 -0.1015625,0.052734 0.03371,-0.017855 0.067565,-0.035433 0.1015625,-0.052734 z M 1.7128906,4.9472656 c -0.017855,0.03371 -0.035433,0.067565 -0.052734,0.1015625 0.017301,-0.033997 0.03488,-0.067853 0.052734,-0.1015625 z M 14.582031,5.6796875 c 0.04322,0.1109312 0.08359,0.2229468 0.121094,0.3359375 0.07616,0.2631429 0.136815,0.5305298 0.181641,0.8007812 -0.02218,-0.1335399 -0.04824,-0.2664083 -0.07813,-0.3984374 -0.02945,-0.1311376 -0.06266,-0.2613999 -0.09961,-0.390625 0.0147,0.040881 0.02903,0.081899 0.04297,0.1230468 -0.01812,-0.058187 -0.03701,-0.1161344 -0.05664,-0.1738281 -0.0026,-0.011074 -0.0052,-0.022142 -0.0078,-0.033203 h -0.002 c -0.03208,-0.088565 -0.06594,-0.1764736 -0.101563,-0.2636719 z m 0.22461,0.7382813 c 0.01716,0.062921 0.03343,0.1260777 0.04883,0.1894531 -0.0256,-0.1303651 -0.05491,-0.2599749 -0.08789,-0.3886719 0.01398,0.066214 0.02701,0.1326272 0.03906,0.1992188 z M 1.3984375,5.7285156 c -0.029173,0.071148 -0.057172,0.1427728 -0.083984,0.2148438 h 0.00195 c 0.026165,-0.072059 0.053513,-0.1436832 0.082031,-0.2148438 z M 8,6 c 1.1045694,2e-7 1.9999998,0.8954306 2,2 -2e-7,1.1045694 -0.8954306,1.9999998 -2,2 -1.1045694,-2e-7 -1.9999998,-0.8954306 -2,-2 2e-7,-1.1045694 0.8954306,-1.9999998 2,-2 z m -6.6855469,4.056641 c 0.051172,0.146351 0.1071929,0.290962 0.1679688,0.433593 -0.060118,-0.142656 -0.1154868,-0.287266 -0.1660157,-0.433593 z m 13.3691409,0 c -0.06627,0.203884 -0.14187,0.404617 -0.226563,0.601562 0.08662,-0.196204 0.164175,-0.396284 0.232422,-0.599609 z M 1.6484375,10.923828 c 0.067867,0.136439 0.1401711,0.270625 0.2167969,0.402344 -0.076626,-0.131719 -0.1489299,-0.265905 -0.2167969,-0.402344 z m 12.7031245,0.0078 c -0.06037,0.120305 -0.1242,0.238844 -0.191406,0.355468 0.06721,-0.116624 0.131035,-0.235163 0.191406,-0.355468 z m -9.4042964,3.355468 c 0.03371,0.01786 0.067565,0.03543 0.1015625,0.05274 -0.033997,-0.0173 -0.067853,-0.03488 -0.1015625,-0.05274 z m 0.78125,0.314453 c 0.071148,0.02917 0.1427728,0.05717 0.2148438,0.08399 v -0.002 c -0.072059,-0.02617 -0.1436832,-0.05351 -0.2148438,-0.08203 z m 4.3183594,0.08594 c -0.0078,0.002 -0.01562,0.0039 -0.02344,0.0059 -0.042836,0.01409 -0.085807,0.02776 -0.1289068,0.04102 0.050958,-0.01505 0.1017421,-0.03067 0.1523438,-0.04687 z m -0.02344,0.0059 c -0.2839053,0.08465 -0.5728981,0.151189 -0.8652349,0.199219 0.018896,-0.0038 0.037777,-0.0077 0.056641,-0.01172 0.273003,-0.04645 0.5430089,-0.109061 0.8085942,-0.1875 z M 9.0273438,14.921875 C 8.6872799,14.973117 8.3439021,14.99923 8,15 c 0.3439021,-7.7e-4 0.6872799,-0.02688 1.0273438,-0.07813 z"
     sodipodi:nodetypes="cccccccccccccccccccccccccccccccccccccccccccccccccccccccccccccccccccccccssssscccccccccccccccccccccccccccccccc" />
  <path
     id="path2897"
     style="fill:#ffffaa;stroke-width:18.8974;stroke-linecap:round;stroke-linejoin:round;paint-order:stroke markers fill"
     d="M 6.4082031 10.539062 L 4.28125 13.929688 A 6.9999999 6.9999999 0 0 0 5.9433594 14.683594 L 7.1191406 10.865234 A 3.0000001 3.0000001 0 0 1 6.4082031 10.539062 z M 9.5917969 10.539062 A 3.0000001 3.0000001 0 0 1 8.8808594 10.865234 L 10.056641 14.683594 A 6.9999999 6.9999999 0 0 0 11.716797 13.923828 L 9.5917969 10.539062 z M 10.023438 14.693359 A 6.9999999 6.9999999 0 0 1 9.0527344 14.917969 A 6.9999999 6.9999999 0 0 0 9.8125 14.761719 A 6.9999999 6.9999999 0 0 0 10.023438 14.693359 z M 6.015625 14.707031 A 6.9999999 6.9999999 0 0 0 6.1875 14.761719 A 6.9999999 6.9999999 0 0 0 6.359375 14.796875 A 6.9999999 6.9999999 0 0 1 6.015625 14.707031 z M 7.6484375 14.982422 A 6.9999999 6.9999999 0 0 0 7.7441406 14.990234 L 7.7441406 14.994141 A 6.9999999 6.9999999 0 0 0 7.8984375 14.992188 A 6.9999999 6.9999999 0 0 1 7.6484375 14.982422 z " />
  <path
     id="path2917"
     style="fill:#55ffff;fill-opacity:1;stroke-width:18.8974;stroke-linecap:round;stroke-linejoin:round;paint-order:stroke markers fill"
     d="M 7.7441406 1.0058594 L 7.7441406 1.0097656 A 6.9999999 6.9999999 0 0 0 7.6484375 1.0175781 A 6.9999999 6.9999999 0 0 1 7.8984375 1.0078125 A 6.9999999 6.9999999 0 0 0 7.7441406 1.0058594 z M 9.0527344 1.0820312 A 6.9999999 6.9999999 0 0 1 10.023438 1.3066406 A 6.9999999 6.9999999 0 0 0 9.8125 1.2382812 A 6.9999999 6.9999999 0 0 0 9.0527344 1.0820312 z M 6.359375 1.203125 A 6.9999999 6.9999999 0 0 0 6.1875 1.2382812 A 6.9999999 6.9999999 0 0 0 6.015625 1.2929688 A 6.9999999 6.9999999 0 0 1 6.359375 1.203125 z M 5.9433594 1.3164062 A 6.9999999 6.9999999 0 0 0 4.28125 2.0703125 L 6.4082031 5.4609375 A 3.0000001 3.0000001 0 0 1 7.1191406 5.1347656 L 5.9433594 1.3164062 z M 10.056641 1.3164062 L 8.8808594 5.1347656 A 3.0000001 3.0000001 0 0 1 9.5917969 5.4609375 L 11.716797 2.0761719 A 6.9999999 6.9999999 0 0 0 10.056641 1.3164062 z " />
  <path
     id="path2939"
     style="fill:#2affaa;fill-opacity:1;stroke-width:18.8974;stroke-linecap:round;stroke-linejoin:round;paint-order:stroke markers fill"
     d="M 13.923828 4.2832031 L 10.539062 6.4082031 A 3.0000001 3.0000001 0 0 1 10.865234 7.1191406 L 14.683594 5.9433594 A 6.9999999 6.9999999 0 0 0 13.923828 4.2832031 z M 14.693359 5.9765625 A 6.9999999 6.9999999 0 0 1 14.855469 6.6074219 A 6.9999999 6.9999999 0 0 0 14.761719 6.1875 A 6.9999999 6.9999999 0 0 0 14.693359 5.9765625 z M 14.998047 8.0351562 A 6.9999999 6.9999999 0 0 1 14.986328 8.2929688 A 6.9999999 6.9999999 0 0 0 14.990234 8.2558594 L 14.994141 8.2558594 A 6.9999999 6.9999999 0 0 0 14.998047 8.0351562 z M 10.865234 8.8808594 A 3.0000001 3.0000001 0 0 1 10.539062 9.5917969 L 13.929688 11.71875 A 6.9999999 6.9999999 0 0 0 14.683594 10.056641 L 10.865234 8.8808594 z M 14.796875 9.640625 A 6.9999999 6.9999999 0 0 1 14.707031 9.984375 A 6.9999999 6.9999999 0 0 0 14.761719 9.8125 A 6.9999999 6.9999999 0 0 0 14.796875 9.640625 z " />
  <path
     id="path2961"
     style="fill:#ffbfff;fill-opacity:1;stroke-width:18.8974;stroke-linecap:round;stroke-linejoin:round;paint-order:stroke markers fill"
     d="M 2.0703125 4.28125 A 6.9999999 6.9999999 0 0 0 1.3164062 5.9433594 L 5.1347656 7.1191406 A 3.0000001 3.0000001 0 0 1 5.4609375 6.4082031 L 2.0703125 4.28125 z M 1.2929688 6.015625 A 6.9999999 6.9999999 0 0 0 1.2382812 6.1875 A 6.9999999 6.9999999 0 0 0 1.203125 6.359375 A 6.9999999 6.9999999 0 0 1 1.2929688 6.015625 z M 1.0175781 7.6484375 A 6.9999999 6.9999999 0 0 0 1.0097656 7.7441406 L 1.0058594 7.7441406 A 6.9999999 6.9999999 0 0 0 1.0078125 7.8984375 A 6.9999999 6.9999999 0 0 1 1.0175781 7.6484375 z M 5.1347656 8.8808594 L 1.3164062 10.056641 A 6.9999999 6.9999999 0 0 0 2.0761719 11.716797 L 5.4609375 9.5917969 A 3.0000001 3.0000001 0 0 1 5.1347656 8.8808594 z M 1.0820312 9.0527344 A 6.9999999 6.9999999 0 0 0 1.2382812 9.8125 A 6.9999999 6.9999999 0 0 0 1.3066406 10.023438 A 6.9999999 6.9999999 0 0 1 1.0820312 9.0527344 z " />
  <path
     id="path2909"
     style="fill:#ffffff;stroke-width:18.8974;stroke-linecap:round;stroke-linejoin:round;paint-order:stroke markers fill"
     d="M 8 1 A 6.9999999 6.9999999 0 0 0 5.9414062 1.3105469 L 7.1191406 5.1347656 A 3.0000001 3.0000001 0 0 1 7.5546875 5.0351562 A 3.0000001 3.0000001 0 0 1 8 5 A 3.0000001 3.0000001 0 0 1 8.4453125 5.0351562 A 3.0000001 3.0000001 0 0 1 8.8808594 5.1347656 L 10.056641 1.3144531 A 6.9999999 6.9999999 0 0 0 8 1 z M 1.3105469 5.9414062 A 6.9999999 6.9999999 0 0 0 1 8 A 6.9999999 6.9999999 0 0 0 1.3144531 10.056641 L 5.1347656 8.8808594 A 3.0000001 3.0000001 0 0 1 5.0351562 8.4453125 A 3.0000001 3.0000001 0 0 1 5 8 A 3.0000001 3.0000001 0 0 1 5.0351562 7.5546875 A 3.0000001 3.0000001 0 0 1 5.1347656 7.1191406 L 1.3105469 5.9414062 z M 14.685547 5.9433594 L 10.865234 7.1191406 A 3.0000001 3.0000001 0 0 1 10.964844 7.5546875 A 3.0000001 3.0000001 0 0 1 11 8 A 3.0000001 3.0000001 0 0 1 10.964844 8.4453125 A 3.0000001 3.0000001 0 0 1 10.865234 8.8808594 L 14.689453 10.058594 A 6.9999999 6.9999999 0 0 0 15 8 A 6.9999999 6.9999999 0 0 0 14.685547 5.9433594 z M 7.1191406 10.865234 L 5.9414062 14.689453 A 6.9999999 6.9999999 0 0 0 8 15 A 6.9999999 6.9999999 0 0 0 10.056641 14.685547 L 8.8808594 10.865234 A 3.0000001 3.0000001 0 0 1 8.4453125 10.964844 A 3.0000001 3.0000001 0 0 1 8 11 A 3.0000001 3.0000001 0 0 1 7.5546875 10.964844 A 3.0000001 3.0000001 0 0 1 7.1191406 10.865234 z " />
  <path
     id="path2987"
     style="fill:#ffffff;stroke-width:18.8976;stroke-linecap:round;stroke-linejoin:round;paint-order:stroke markers fill"
     d="M 8 6 A 2.0000004 2.0000004 0 0 0 6 8 A 2.0000004 2.0000004 0 0 0 8 10 A 2.0000004 2.0000004 0 0 0 10 8 A 2.0000004 2.0000004 0 0 0 8 6 z M 8 7 A 1 1 0 0 1 9 8 A 1 1 0 0 1 8 9 A 1 1 0 0 1 7 8 A 1 1 0 0 1 8 7 z " />
  <circle
     style="fill:#a0a0a4;stroke-width:18.8976;stroke-linecap:round;stroke-linejoin:round;paint-order:stroke markers fill"
     id="circle2989"
     cx="8"
     cy="8"
     r="1" />
</svg>
